P2
# CREATOR: ReedMuller 
128 128
63
41 42 1 35 53 42 63 63 36 46 41 43 41 42 37 36 22 22 27 26 15 18 27 25 31 26 25 16 26 29 15 22 55 40 37 3 55 41 35 41 48 43 41 41 35 53 5 47 35 19 32 49 35 33 35 45 32 33 56 57 25 42 49 40 11 33 57 33 34 30 36 36 31 44 27 4 30 31 21 12 26 8 35 54 39 40 39 34 13 36 44 36 36 38 38 36 39 6 38 39 39 40 53 38 53 48 26 26 29 14 22 31 30 4 15 30 22 10 30 29 40 31 23 31 20 25 34 43 
57 40 56 46 39 4 37 47 47 35 41 47 58 42 37 30 21 4 25 30 27 3 11 18 27 23 15 25 30 31 23 11 0 43 33 41 33 48 32 2 40 49 13 47 33 48 34 32 32 33 37 33 41 32 36 51 51 33 56 32 44 1 33 32 49 61 1 31 36 48 31 33 22 48 29 31 27 31 16 11 25 28 35 15 39 37 46 37 5 23 62 14 38 46 41 37 63 45 51 39 47 15 53 50 54 50 31 25 9 28 30 5 30 30 29 14 29 31 44 27 23 56 23 23 5 31 40 7 
14 38 44 3 61 38 39 38 54 42 47 42 58 58 20 22 24 22 8 24 31 28 16 8 29 24 11 16 29 25 21 15 27 31 0 34 33 34 33 48 41 1 40 35 32 34 32 37 51 32 34 41 34 32 32 36 32 21 27 32 34 49 48 36 35 32 50 16 52 4 31 28 2 16 29 30 31 29 29 19 30 12 32 52 50 42 51 36 14 49 62 38 39 63 40 5 35 6 5 37 34 45 49 51 54 22 42 30 31 31 22 31 22 31 21 31 15 27 14 23 31 31 6 31 31 23 20 12 
34 10 7 36 40 47 39 38 50 33 56 35 42 63 36 31 9 8 23 28 26 11 28 9 25 26 31 30 30 14 28 22 11 29 32 41 49 33 12 41 14 52 34 34 48 11 35 2 30 3 33 35 35 34 49 54 40 33 40 32 35 51 37 37 45 37 50 0 40 32 29 31 5 32 52 42 31 20 21 27 28 17 30 39 52 34 0 32 48 39 32 56 38 45 22 55 39 34 36 42 38 36 58 51 63 55 34 40 27 27 27 13 17 6 11 28 30 14 31 30 15 30 30 33 31 1 12 11 
47 6 39 39 33 39 55 6 40 46 41 62 9 39 45 30 23 21 20 26 15 26 27 25 17 18 27 20 31 29 5 24 41 29 1 32 23 44 1 3 32 32 33 53 34 47 41 34 33 34 41 33 32 2 35 36 32 36 34 40 33 33 57 48 40 33 57 32 14 38 32 32 33 7 9 31 0 30 25 28 25 11 30 33 45 14 42 36 7 32 9 40 47 40 37 3 19 35 36 38 25 32 37 48 53 62 35 46 29 30 7 29 22 26 31 31 30 31 27 25 31 30 33 31 7 10 14 11 
4 55 55 36 54 37 6 40 35 10 40 40 22 34 36 31 24 21 26 18 28 17 13 27 25 25 29 21 30 22 30 27 22 31 36 41 30 20 33 36 44 33 40 0 48 52 32 35 16 39 49 40 32 33 46 42 1 29 33 31 34 34 38 9 34 42 27 41 37 33 31 12 33 32 25 36 15 31 9 30 27 24 3 1 36 46 47 40 8 40 40 8 38 38 33 6 62 42 53 13 38 34 39 44 52 52 54 33 32 23 24 24 12 22 13 31 20 31 33 18 12 41 38 15 9 12 11 4 
15 6 39 40 7 39 38 34 3 10 25 2 33 40 36 23 24 20 18 12 26 10 19 22 8 20 20 28 26 15 22 31 32 32 33 18 30 4 30 32 50 32 30 18 33 42 5 42 4 9 32 0 23 31 30 23 21 32 31 30 30 48 32 49 32 34 31 11 31 48 36 32 32 36 11 16 27 31 32 25 27 10 28 34 35 63 0 58 37 41 42 39 39 61 6 39 61 7 39 39 38 37 54 39 62 55 51 55 34 14 2 15 30 17 11 31 30 19 14 0 44 32 8 12 8 2 10 6 
7 39 44 40 39 12 61 58 47 46 56 41 41 40 34 36 25 20 24 28 25 24 18 26 25 26 26 31 30 27 30 30 29 22 27 54 23 38 56 32 48 24 35 48 33 48 33 31 33 33 33 31 26 30 30 52 31 18 27 36 34 1 50 31 2 21 53 56 7 32 5 29 26 27 30 4 7 31 21 24 29 12 17 31 8 43 47 33 35 25 63 40 38 55 55 63 39 45 36 39 38 53 57 33 33 32 38 22 22 10 24 29 29 29 29 30 14 22 11 32 35 13 8 15 14 12 13 9 
33 35 12 39 8 46 10 58 34 51 34 32 41 41 37 29 0 7 23 24 24 14 26 1 0 26 27 12 13 14 27 29 40 27 31 50 31 36 26 1 32 41 33 35 36 1 32 24 34 41 29 23 25 28 31 28 32 0 20 31 19 48 52 16 0 34 34 41 23 7 36 30 40 11 30 57 25 28 30 27 3 14 19 31 18 37 38 24 40 55 47 44 3 39 38 39 55 38 37 35 36 6 37 4 51 44 21 35 55 60 21 27 31 29 23 22 30 4 18 26 14 14 12 12 4 7 13 12 
47 47 40 37 8 47 40 40 9 9 3 54 22 41 44 29 29 28 27 30 26 25 29 25 26 16 27 29 30 30 14 30 30 3 32 32 29 27 30 31 32 32 48 4 33 50 8 41 32 37 27 19 15 19 12 23 31 29 31 10 31 34 31 32 35 49 30 11 33 32 31 30 31 37 30 29 40 22 22 31 25 28 3 17 34 41 15 34 14 39 38 55 42 39 8 39 12 36 51 34 39 5 6 41 7 43 34 20 21 54 48 20 11 29 25 26 29 9 29 10 11 11 8 8 13 13 13 8 
40 40 46 41 41 56 37 56 8 6 40 41 40 39 36 26 27 22 24 29 25 24 3 25 24 25 25 28 21 29 13 30 31 30 22 30 26 31 30 40 36 35 38 33 8 32 4 31 40 40 32 32 31 25 2 30 29 13 31 25 26 26 31 35 29 33 29 44 17 0 27 32 27 29 23 49 27 30 30 8 11 23 26 30 41 11 41 38 39 39 32 35 39 23 39 38 55 12 39 37 50 55 37 37 52 35 23 60 31 12 37 45 26 27 20 29 28 25 11 11 11 13 13 12 13 12 13 10 
40 35 8 2 2 40 34 6 39 34 44 35 40 40 49 29 18 20 30 13 26 26 24 26 26 18 0 27 22 27 13 30 17 31 48 30 14 23 48 44 33 31 33 0 33 30 27 23 33 32 30 18 30 14 32 14 39 56 36 45 29 13 19 23 6 22 13 29 29 16 2 29 36 44 2 31 21 32 13 29 29 27 6 23 8 35 6 53 36 47 35 23 46 14 39 38 22 37 38 34 41 36 54 51 39 34 36 50 54 62 1 35 17 26 26 23 30 6 12 10 12 13 14 14 10 15 8 12 
56 40 38 40 43 39 40 42 0 12 39 39 10 36 25 34 15 22 7 8 28 26 1 26 25 31 12 22 20 29 13 26 23 4 31 1 31 23 31 33 34 6 0 48 33 33 56 30 31 36 36 37 40 13 43 47 47 33 36 59 34 24 4 17 26 31 26 31 49 46 29 56 28 18 31 27 31 9 14 29 20 27 2 28 4 35 53 7 0 55 42 36 46 62 39 39 44 60 38 36 37 35 54 38 32 16 53 46 52 51 48 54 27 22 29 12 12 15 11 3 13 13 14 14 12 10 13 4 
48 40 41 34 39 54 36 36 34 41 11 8 40 39 36 15 23 18 23 10 25 25 24 29 21 31 18 29 24 30 25 4 32 19 31 48 13 51 35 32 31 37 1 8 36 38 30 34 2 36 53 35 37 32 44 43 11 46 61 59 23 37 47 48 44 48 28 28 30 38 31 40 15 14 21 22 30 10 29 20 29 24 24 29 62 34 37 34 37 51 33 36 39 37 32 38 38 6 37 52 1 49 35 34 33 2 3 33 47 38 57 57 52 21 21 14 10 11 10 11 15 10 13 5 2 12 15 8 
37 56 25 41 49 51 27 31 52 33 49 40 42 56 21 19 20 3 20 16 23 25 18 9 27 2 26 29 29 30 30 7 31 15 29 30 26 27 33 27 30 30 25 40 38 4 19 37 35 36 32 35 52 36 41 42 42 12 38 43 41 47 46 47 49 38 40 28 9 11 30 30 30 31 15 21 30 24 14 31 0 28 22 29 57 35 37 54 32 12 33 42 29 0 5 44 33 36 36 44 0 51 35 34 39 51 35 33 19 55 59 57 56 61 21 15 8 10 15 14 15 13 13 3 13 9 3 5 
40 41 42 38 15 29 10 31 55 8 8 12 60 44 34 34 3 6 2 23 26 25 27 24 5 24 1 20 31 30 30 6 30 48 29 30 31 32 12 31 31 32 45 34 31 12 30 35 13 36 36 50 37 36 40 54 9 40 25 61 57 45 56 41 52 17 50 35 39 21 13 28 23 30 30 30 28 8 25 29 4 10 29 29 32 51 5 16 32 33 52 55 23 46 6 0 39 52 54 50 3 32 38 18 3 0 39 35 32 46 49 57 57 52 9 10 10 0 6 13 13 12 11 13 5 2 15 15 
45 43 18 39 18 26 18 4 36 13 32 41 41 3 37 40 22 24 20 20 25 29 29 24 2 30 10 11 15 30 30 25 26 31 26 31 31 17 31 34 20 13 8 31 26 34 22 35 33 20 35 47 36 35 53 33 41 36 51 12 10 10 46 16 45 16 57 48 56 38 25 19 13 20 29 25 27 8 24 28 18 25 27 11 53 33 63 52 35 4 4 32 36 61 58 10 34 18 58 38 1 32 59 35 58 44 21 39 51 36 52 59 54 17 10 10 3 12 13 1 4 3 8 5 11 3 12 14 
42 43 37 37 30 17 22 37 37 12 9 57 32 24 3 25 28 1 22 21 22 24 24 25 17 25 26 28 16 14 13 31 25 31 13 30 15 29 33 50 15 13 15 21 23 29 33 37 31 32 43 33 35 33 45 2 7 35 63 63 29 60 46 49 34 47 6 50 46 18 18 33 27 14 16 29 4 12 31 24 26 26 29 20 39 32 46 52 36 37 51 36 34 32 36 35 55 32 2 37 35 34 35 36 18 34 34 36 4 34 40 48 30 12 9 10 12 11 9 14 14 4 12 6 11 12 13 7 
3 40 3 53 8 22 26 32 37 56 42 9 43 19 50 23 21 24 21 23 25 25 16 24 8 9 9 31 25 20 28 12 21 12 30 30 26 31 18 26 28 20 17 26 23 31 27 21 46 1 39 52 32 36 48 35 10 40 9 47 9 16 15 43 48 48 9 27 57 50 58 49 12 31 22 28 13 27 27 27 12 17 25 22 49 44 42 62 32 36 37 49 32 50 37 33 35 35 45 0 2 44 39 4 35 39 46 1 37 34 32 20 11 0 11 10 13 12 15 11 11 5 15 12 5 4 9 9 
9 48 44 29 20 30 23 36 6 32 41 59 8 37 45 29 23 16 21 23 27 11 26 8 25 25 10 19 26 28 12 24 29 30 30 29 34 29 35 24 27 18 28 13 27 2 14 32 31 6 10 49 33 28 32 55 42 56 14 56 45 40 47 45 49 48 49 4 49 45 22 39 58 61 40 28 11 11 26 27 13 29 29 21 62 47 47 47 4 53 50 29 17 15 1 38 39 4 33 54 51 43 50 47 32 37 52 21 54 39 12 11 12 3 11 9 11 12 9 13 14 12 12 12 27 11 11 27 
39 37 1 22 4 7 8 40 47 40 40 45 40 41 39 30 5 17 30 31 24 25 8 24 26 24 26 13 16 30 5 11 27 33 30 14 6 33 20 1 26 30 52 30 32 31 25 61 39 40 35 0 50 34 23 6 45 42 43 47 36 62 47 42 45 15 39 50 54 23 55 38 38 60 57 7 6 25 27 27 25 24 26 25 33 3 5 7 36 38 35 29 7 0 16 36 37 39 36 36 35 44 36 36 54 4 45 47 39 36 11 11 11 10 15 4 15 11 8 13 13 0 12 25 6 13 27 2 
6 51 17 4 17 14 19 30 5 47 40 33 11 39 43 27 23 19 17 22 23 5 25 24 10 16 9 31 14 28 13 28 23 21 22 31 31 21 19 12 27 12 19 19 31 30 1 10 21 8 35 34 19 33 56 3 42 41 50 46 39 25 13 41 8 49 54 60 37 54 53 53 51 54 48 34 19 20 23 11 27 7 26 22 34 34 39 38 47 39 39 30 17 15 26 33 36 36 53 32 39 32 39 22 3 36 33 41 5 13 10 10 10 10 1 5 13 8 1 12 14 13 15 20 14 2 36 5 
34 28 21 17 22 17 23 5 53 9 11 25 1 39 37 27 21 7 29 20 0 0 25 26 25 29 4 24 15 31 17 14 31 18 12 30 29 4 26 12 29 30 22 19 26 24 28 15 29 3 40 1 50 49 39 35 38 24 33 62 60 46 56 40 53 21 51 42 20 51 58 35 60 51 17 53 51 21 16 4 23 5 11 28 1 0 38 46 37 37 36 18 19 10 17 31 39 38 37 0 37 10 46 48 36 33 37 37 22 11 8 8 14 11 15 12 13 15 9 11 13 3 22 24 19 60 39 32 
30 8 29 31 22 3 26 0 37 41 63 41 33 0 60 17 23 3 22 24 25 8 29 29 11 6 26 30 12 25 29 28 28 31 31 13 28 17 20 26 29 28 29 28 27 19 3 49 40 37 51 36 7 32 51 2 52 43 52 38 38 12 51 43 51 51 17 54 37 55 49 53 58 50 54 60 3 32 23 21 22 21 0 6 1 36 20 5 53 39 3 29 22 9 14 26 1 44 37 4 34 4 44 34 36 37 11 35 10 11 3 10 9 11 12 15 12 17 14 12 5 15 2 25 3 36 34 37 
31 28 5 7 21 16 20 31 38 40 33 43 41 35 52 15 22 21 23 24 26 22 19 8 8 27 16 15 12 15 6 13 30 30 55 28 21 26 28 19 31 10 28 20 16 15 35 32 33 28 2 33 53 35 50 51 48 34 4 11 47 51 58 51 51 19 54 40 51 48 59 38 40 51 35 51 55 55 46 3 19 19 7 27 32 5 38 38 38 7 37 32 19 2 3 31 25 18 44 36 33 34 35 36 37 37 34 15 4 9 10 14 14 15 11 10 15 11 13 15 16 7 28 2 37 4 7 40 
22 23 18 22 25 6 24 27 53 42 42 46 15 36 54 6 19 1 22 24 10 0 8 8 18 23 9 3 27 6 20 29 31 17 33 26 19 30 12 9 12 19 13 31 26 30 30 38 51 32 38 38 2 1 32 49 32 37 38 34 15 44 2 34 18 50 19 17 53 52 60 49 53 51 20 52 53 22 48 48 20 2 5 10 34 39 37 14 36 36 36 22 19 15 8 13 25 32 35 37 51 34 35 36 7 38 24 12 2 15 11 14 14 14 14 8 14 13 14 16 14 20 33 35 31 35 32 9 
13 21 7 24 23 20 17 33 1 47 43 57 58 35 32 16 23 3 20 4 8 24 27 24 9 27 9 8 5 25 16 24 25 53 24 19 27 18 31 21 29 29 20 29 32 35 34 36 5 35 5 36 42 33 0 34 33 44 40 58 49 46 47 56 39 8 22 35 32 3 52 60 36 34 51 53 48 60 29 56 42 7 20 30 49 36 52 6 39 39 4 31 19 5 10 9 17 29 39 36 35 45 42 36 39 2 14 8 11 13 9 14 13 12 3 11 11 12 16 12 11 48 37 36 46 43 62 43 
6 22 22 22 17 23 0 15 37 40 40 45 57 56 53 23 19 17 22 22 21 25 8 18 22 25 10 10 8 29 29 28 27 42 4 2 17 31 26 26 15 28 12 29 48 34 34 32 48 41 49 34 35 24 31 42 12 4 60 49 52 48 1 46 52 59 49 58 20 52 49 16 54 51 25 22 17 52 57 63 54 28 16 23 36 12 46 39 45 39 52 30 23 10 11 9 11 27 4 33 34 35 45 39 37 2 13 9 1 1 11 12 4 9 4 15 10 14 15 14 31 46 32 38 33 44 42 40 
24 20 27 21 12 6 23 33 5 36 8 51 56 41 48 27 22 21 17 17 22 22 27 15 6 25 27 28 27 29 22 13 45 35 0 26 26 13 30 20 25 37 52 32 2 34 24 43 32 35 50 17 31 24 43 44 47 49 10 38 19 9 49 57 57 36 51 2 52 51 35 50 53 49 50 52 59 52 63 21 56 39 14 23 48 53 5 38 38 46 37 13 28 10 13 10 2 11 0 50 58 60 48 44 6 13 13 9 13 15 13 8 14 9 11 12 14 9 11 25 36 4 2 39 0 32 40 45 
21 20 23 29 21 25 17 6 50 56 34 41 40 35 4 26 23 0 20 21 26 23 7 7 9 15 25 25 26 27 26 18 58 31 27 31 27 20 25 13 26 29 32 56 10 5 49 13 57 22 27 28 29 59 41 50 44 34 44 51 22 61 37 16 25 47 39 50 37 49 48 36 54 50 62 51 16 54 49 52 31 56 11 20 23 39 28 38 36 36 23 31 29 8 10 1 11 4 54 50 49 52 56 36 30 12 13 12 5 12 19 4 13 14 12 20 12 2 3 36 46 38 34 32 40 41 39 39 
20 17 19 21 23 19 20 30 40 35 57 9 41 8 33 27 22 18 21 9 26 8 16 22 24 27 27 18 26 28 30 19 0 32 25 3 3 23 28 21 20 25 25 34 30 15 37 35 8 17 15 42 48 57 47 38 54 46 42 44 13 55 62 47 26 39 62 46 14 34 50 22 21 17 51 25 51 35 34 51 53 57 13 22 44 50 35 37 39 39 39 5 5 15 0 10 63 62 39 51 55 50 38 57 55 3 11 12 13 13 11 12 11 11 10 5 11 14 53 36 34 36 44 48 32 40 39 2 
24 4 23 24 24 20 20 22 49 0 46 45 44 41 53 14 0 16 19 23 17 25 28 2 24 24 24 19 24 29 26 11 42 28 29 15 26 28 3 31 30 31 32 49 0 32 37 30 28 25 46 43 44 2 59 3 54 47 45 34 46 7 14 4 9 42 8 34 52 53 63 17 55 18 17 18 36 18 56 43 55 16 21 22 30 35 39 43 2 39 2 20 15 13 8 53 9 40 54 14 52 52 56 31 56 10 15 12 14 12 11 14 8 6 15 12 10 26 54 45 33 15 10 38 39 46 39 7 
19 25 23 9 24 24 16 23 37 40 43 41 40 45 0 28 5 18 4 23 24 24 28 24 24 9 20 11 25 30 25 50 35 28 25 10 27 4 25 30 38 21 28 29 23 44 59 30 27 41 40 8 0 7 47 45 29 44 15 39 31 39 61 47 43 61 56 54 50 44 55 48 50 55 49 51 32 42 51 48 51 49 55 50 31 4 61 39 38 39 41 0 15 33 54 62 52 54 57 54 42 19 61 29 57 9 12 5 14 11 0 4 1 6 13 9 1 39 42 3 55 32 12 3 10 39 63 39 
28 24 25 24 24 25 28 29 2 43 11 45 41 50 6 13 28 17 29 29 25 16 27 15 16 26 26 26 28 13 28 54 45 15 22 24 7 20 27 16 33 27 14 42 3 12 34 23 35 6 24 37 44 37 15 34 46 32 4 44 45 47 62 56 36 48 10 32 20 38 37 49 16 50 42 49 49 60 30 22 34 50 38 53 61 34 41 55 37 45 27 1 27 38 38 18 17 54 19 50 50 52 30 53 37 15 4 5 26 8 11 11 4 14 6 11 34 7 41 37 41 40 35 7 43 39 35 38 
9 24 24 28 17 25 24 14 37 35 15 34 42 40 39 15 6 31 4 23 25 10 25 16 25 24 9 17 20 11 24 49 32 29 3 26 18 24 23 15 30 21 31 31 24 24 27 38 24 34 4 49 35 0 47 46 58 43 35 42 42 15 31 42 37 38 3 36 63 10 58 2 53 15 44 23 48 49 58 34 35 16 53 53 48 19 36 5 37 34 57 36 44 51 52 61 62 51 58 56 59 21 4 55 22 10 8 6 14 15 10 11 11 13 8 20 9 16 53 39 45 44 55 40 42 36 38 53 
25 24 14 29 25 9 29 8 33 60 13 42 42 46 7 27 23 26 15 22 16 29 30 17 26 17 16 26 30 16 25 43 2 32 8 23 26 22 27 26 29 31 28 23 30 25 45 37 12 36 8 13 24 15 46 43 42 58 14 44 46 6 45 44 47 27 41 26 60 56 47 13 45 47 46 45 50 33 17 40 47 32 25 20 42 57 38 37 43 36 4 26 49 51 50 53 18 58 34 49 51 31 55 55 53 12 12 13 12 11 0 14 13 7 25 48 38 36 38 55 50 23 39 51 39 39 39 38 
25 27 25 19 25 9 17 30 36 32 58 45 58 10 15 31 4 20 24 20 24 31 24 24 17 25 18 18 29 10 38 34 61 31 25 25 25 16 10 20 31 31 25 10 26 52 52 37 34 2 39 39 37 45 39 40 41 10 41 22 44 41 36 40 61 26 8 47 43 34 3 39 50 41 60 60 50 34 52 60 37 45 7 46 38 20 46 48 50 5 57 49 50 50 18 17 51 55 51 58 29 52 48 54 1 15 13 13 5 8 13 8 6 16 10 37 37 17 6 8 8 39 35 41 39 38 39 55 
30 25 25 24 24 9 30 26 12 40 44 35 9 42 39 13 16 27 23 17 22 26 23 24 25 24 24 19 28 30 49 50 38 31 23 25 26 18 27 20 31 12 36 27 37 39 38 60 30 7 53 38 40 37 28 53 41 59 7 41 38 46 63 42 43 41 8 39 46 13 40 47 6 63 34 24 51 44 34 45 62 46 50 31 46 29 56 8 53 56 52 49 27 58 49 1 50 50 51 13 54 28 39 54 10 14 5 12 11 12 5 11 2 23 33 39 35 33 5 39 41 37 42 35 39 36 39 2 
25 24 26 25 28 22 24 18 36 41 43 45 59 44 45 42 22 3 29 24 23 25 24 11 23 10 28 26 17 26 56 52 33 0 27 31 24 29 26 31 23 24 16 21 38 4 53 12 43 36 7 35 7 36 34 5 32 39 45 11 38 41 44 31 46 44 41 12 37 60 45 47 44 38 47 57 42 46 34 43 45 34 36 13 59 62 53 38 50 59 32 24 50 50 16 35 59 43 45 33 45 19 52 39 8 8 12 8 14 10 12 12 10 28 33 33 39 34 56 0 42 37 34 39 47 39 39 10 
24 5 6 24 20 23 31 30 32 33 42 43 43 37 39 52 21 19 12 25 24 9 27 31 2 16 8 25 13 22 19 44 40 6 51 56 25 13 25 29 29 23 32 52 32 36 26 43 45 44 20 36 40 6 40 34 32 44 41 42 42 15 27 55 42 43 38 41 32 27 39 43 61 41 44 35 9 45 36 54 10 41 19 36 16 24 48 50 40 16 57 51 55 49 54 33 35 51 40 39 46 42 50 31 0 14 3 14 8 11 14 18 5 32 32 36 39 33 44 41 39 40 40 5 35 8 47 41 
24 14 31 23 22 23 25 32 1 34 10 42 10 42 34 15 21 31 28 23 24 24 11 8 24 8 9 25 9 21 53 62 10 35 3 39 7 16 30 10 22 32 58 32 43 25 50 50 38 38 33 46 41 34 33 32 14 8 43 33 43 9 40 43 8 11 39 42 42 46 35 54 46 37 40 39 40 41 35 12 48 36 47 36 50 19 48 45 16 47 49 19 42 50 62 3 53 37 46 30 33 43 49 11 1 13 14 3 3 14 11 17 52 5 38 37 40 41 32 44 43 42 61 21 6 13 11 55 
28 24 8 22 21 23 17 33 38 40 39 35 43 40 6 2 28 2 20 20 24 21 25 25 0 21 17 24 21 20 49 46 62 45 38 3 20 25 30 24 36 22 34 33 18 23 6 36 41 63 2 37 53 32 48 38 47 42 42 6 44 41 56 43 52 56 33 43 42 33 41 43 10 39 47 32 41 39 59 25 46 45 50 50 53 60 63 35 50 53 2 56 19 3 57 60 50 38 43 13 33 40 12 8 13 14 11 10 12 9 5 24 38 35 45 63 39 39 33 46 39 38 46 7 55 38 34 41 
19 16 12 23 8 27 25 27 33 40 58 46 58 46 38 48 8 23 21 24 5 25 23 24 25 28 23 7 22 5 54 50 21 60 35 61 37 17 23 36 22 35 33 21 30 34 36 37 58 28 21 37 13 39 47 39 53 39 56 3 31 28 23 40 26 0 41 22 43 41 41 9 56 39 38 55 38 39 9 47 46 58 43 33 39 48 49 34 13 58 50 50 26 51 45 52 44 43 56 18 23 53 20 2 11 10 13 9 8 12 15 33 34 52 39 44 40 62 39 47 5 41 39 39 34 38 39 54 
25 17 19 19 24 26 27 27 52 41 46 43 43 30 33 16 19 2 29 4 27 24 15 13 23 24 16 24 23 19 6 38 32 57 41 33 41 11 4 31 31 39 27 15 43 35 2 44 30 36 6 32 62 44 15 11 27 8 23 49 37 44 30 35 39 55 48 7 38 58 5 17 22 39 46 33 48 39 51 18 48 44 9 49 3 57 49 55 48 16 51 51 51 20 37 41 16 25 23 26 10 31 3 8 11 13 15 14 2 9 23 22 52 5 56 60 51 8 39 47 7 31 39 34 0 45 51 38 
10 24 27 2 28 24 24 49 36 41 33 32 11 42 39 32 22 19 17 22 7 17 29 25 19 26 25 13 22 22 39 48 50 44 20 33 35 28 29 30 28 25 29 35 0 39 28 40 1 32 23 6 5 43 33 35 28 26 20 11 4 43 19 39 33 8 19 24 21 20 14 5 8 36 14 38 24 37 49 63 48 50 32 60 48 48 54 54 48 0 50 59 50 51 43 40 20 24 23 55 17 28 11 4 14 9 10 9 3 5 33 38 35 40 42 10 3 40 32 38 33 38 55 38 45 35 7 7 
12 24 24 8 13 27 23 57 50 33 40 59 43 43 3 33 31 16 17 28 31 24 10 24 16 25 25 27 25 4 55 54 51 47 33 24 34 27 20 30 23 22 35 34 42 29 4 31 34 29 33 28 30 51 33 22 13 21 15 24 11 30 28 18 13 4 17 15 13 10 10 8 14 48 37 33 49 17 32 50 17 16 63 40 21 33 51 16 40 43 50 48 45 26 5 31 22 26 39 18 52 25 3 13 12 12 13 13 9 23 36 45 33 43 41 40 44 58 47 3 39 37 15 37 47 6 43 38 
24 27 9 25 24 31 7 33 34 63 58 45 11 43 41 49 3 18 20 31 21 27 24 26 16 27 27 23 23 20 55 55 53 45 54 26 33 24 25 19 23 44 41 37 29 30 33 3 28 37 38 6 40 33 27 2 32 25 19 6 16 22 32 23 28 21 10 29 9 1 1 18 13 32 63 21 48 48 48 48 49 56 32 48 48 20 50 58 55 48 7 23 20 0 23 25 28 10 50 32 10 12 12 12 12 14 7 8 10 36 4 35 50 59 32 22 55 39 37 21 15 3 55 46 39 39 52 22 
3 21 24 24 25 31 27 37 61 61 53 8 59 43 42 33 27 10 27 31 8 21 23 27 25 24 28 25 24 25 22 57 43 48 50 37 39 37 0 30 35 32 32 28 15 0 33 31 34 42 1 28 31 49 25 15 19 19 9 9 10 4 30 7 17 23 24 11 2 8 4 38 20 53 52 45 50 47 39 33 48 7 30 37 33 25 52 17 56 33 24 25 22 8 38 12 43 13 14 12 8 12 15 11 2 14 16 11 24 33 52 37 11 40 40 33 37 41 7 36 33 7 47 7 34 38 6 39 
27 10 9 22 26 24 12 58 38 57 58 42 45 42 3 34 26 18 20 19 23 21 18 24 9 25 25 18 25 7 25 21 20 30 45 20 38 54 17 49 48 41 20 29 31 30 27 23 37 48 19 11 9 18 6 0 10 9 12 27 20 20 2 28 3 23 8 29 3 60 49 61 49 46 61 47 38 46 47 60 36 40 48 18 2 50 48 18 23 19 57 32 56 40 42 43 45 44 1 10 13 4 13 11 1 5 13 12 10 39 42 57 45 57 41 56 9 47 42 59 47 55 32 59 39 53 39 37 
20 27 10 26 17 29 24 42 62 48 3 44 40 32 7 40 26 17 7 23 21 23 24 24 21 26 27 26 29 23 29 23 61 45 15 41 37 17 27 35 39 18 31 26 14 0 29 57 25 21 47 19 27 20 14 12 14 14 14 31 19 12 31 4 27 13 0 10 55 34 42 48 47 44 13 46 59 47 33 59 62 48 39 48 17 2 6 43 3 24 37 33 10 9 35 48 46 9 5 9 15 6 1 7 14 14 12 14 36 36 36 32 41 36 41 60 40 0 39 39 16 49 47 54 39 55 42 36 
26 30 27 25 18 24 30 38 49 42 45 10 42 34 47 49 31 18 12 22 23 23 27 10 17 4 24 29 31 27 6 23 51 47 38 46 12 26 40 31 29 21 40 19 30 28 32 39 28 16 1 21 31 28 15 13 11 9 19 22 3 7 21 29 9 32 7 12 21 41 51 15 46 41 13 42 39 50 42 40 43 8 47 45 21 12 27 17 54 28 62 38 43 42 49 13 10 9 8 14 1 10 13 8 12 13 10 29 39 39 43 9 42 42 27 0 57 58 13 37 39 46 39 47 38 54 6 52 
3 22 28 26 25 24 28 33 36 44 41 15 41 9 4 34 5 18 31 20 23 7 24 23 9 26 25 31 25 27 5 6 53 52 60 45 38 31 35 23 30 32 34 22 30 45 23 30 24 25 0 30 5 14 13 19 8 12 24 10 15 14 6 13 11 30 30 12 39 17 33 54 46 32 39 60 43 45 52 47 12 33 49 14 30 25 31 24 20 28 28 2 37 19 22 9 10 10 13 12 13 14 10 13 14 12 17 26 35 13 44 32 57 41 42 12 0 8 20 41 55 56 51 37 23 62 52 5 
27 31 29 25 24 11 15 15 34 42 42 43 11 3 36 33 22 17 1 18 19 19 16 27 0 29 24 26 27 29 27 15 21 26 16 57 29 30 23 27 32 53 30 31 32 30 28 26 15 19 19 27 15 13 14 24 10 21 13 13 18 7 21 22 16 30 31 14 46 54 47 45 28 40 44 38 44 29 47 43 50 25 50 55 57 11 16 23 28 5 20 45 60 5 8 11 10 5 16 12 5 9 7 13 3 13 20 37 22 46 42 10 56 43 49 40 8 40 8 55 39 40 39 47 39 35 49 37 
31 27 26 25 10 24 7 30 37 41 10 35 10 25 9 56 8 16 19 23 14 10 24 26 23 9 29 10 24 20 15 25 22 21 51 8 6 28 28 30 25 5 25 50 33 3 22 24 8 14 24 29 15 13 24 14 31 12 2 8 8 11 12 20 21 16 22 55 46 56 46 42 41 42 43 44 44 44 46 22 48 53 1 31 12 29 7 11 22 24 37 39 20 14 10 11 9 12 15 14 9 13 9 13 12 16 14 0 29 47 42 46 12 46 45 41 12 40 40 8 36 40 5 7 39 32 38 38 
28 11 26 1 20 23 23 20 62 24 58 63 44 43 55 35 23 21 23 15 25 25 26 24 24 6 28 25 17 14 31 29 22 54 62 47 27 40 30 30 26 39 2 19 28 17 4 25 1 14 12 22 22 16 16 9 39 8 7 10 11 5 13 14 7 31 44 44 46 47 28 40 43 46 42 7 42 47 49 35 49 48 35 50 47 37 16 10 27 18 35 39 28 9 14 8 12 5 13 12 13 10 2 4 14 22 38 49 52 47 46 56 42 13 40 33 41 46 24 11 1 8 47 55 39 39 20 37 
28 26 25 29 25 26 22 30 38 9 42 11 15 43 33 43 28 2 16 6 29 0 25 10 26 25 18 9 26 28 29 30 31 54 63 30 26 28 28 9 36 31 25 30 2 8 13 13 10 2 9 19 14 20 14 11 14 26 25 11 8 11 32 4 42 29 63 44 49 44 32 51 32 13 36 41 47 20 50 51 52 62 18 59 50 34 17 9 11 27 6 33 22 7 10 3 6 6 16 5 13 5 15 3 13 28 35 2 4 39 55 39 56 43 32 57 40 45 41 40 41 40 35 32 38 38 38 62 
17 10 31 21 24 16 22 29 49 40 42 35 44 15 48 52 25 17 17 31 17 24 24 28 25 27 13 28 43 30 11 27 25 54 53 16 28 5 31 44 10 0 10 20 21 0 28 15 9 13 8 11 17 0 20 7 10 28 8 2 9 46 23 47 41 59 26 35 45 10 40 45 61 12 41 60 15 16 22 22 50 50 33 60 38 42 27 7 11 29 21 40 16 9 14 15 12 15 17 11 3 12 14 11 13 58 1 19 40 14 38 39 15 38 7 39 11 59 12 40 38 40 37 39 39 46 42 38 
25 26 26 27 26 13 17 29 37 43 34 40 11 27 4 37 29 1 23 24 25 25 28 25 13 26 8 27 28 28 29 5 19 19 41 27 17 5 48 29 1 5 26 12 15 9 20 9 22 14 10 14 11 3 26 27 14 38 5 9 8 31 21 44 38 14 42 46 17 43 34 11 55 41 62 38 63 61 51 10 59 48 48 3 52 47 28 9 0 10 14 43 30 6 11 12 15 10 16 15 15 15 7 8 2 16 48 39 8 55 46 34 44 33 63 38 36 39 45 40 8 12 38 38 54 14 6 6 
27 26 27 24 25 21 18 13 35 41 43 42 44 63 10 35 26 27 20 26 24 25 8 25 25 26 26 25 27 18 31 30 14 21 51 32 12 42 24 35 24 23 13 4 10 10 13 7 11 18 12 14 28 15 26 5 11 26 3 38 26 26 11 18 46 34 6 47 13 24 44 38 40 41 42 61 33 50 55 17 34 59 6 17 12 17 32 24 10 11 21 42 21 11 13 2 7 14 10 16 15 13 15 13 12 35 33 13 32 41 43 53 38 46 30 38 60 44 36 5 38 39 54 34 38 6 37 36 
29 1 26 24 4 24 23 13 32 42 51 34 45 43 58 37 27 20 6 19 16 13 20 26 9 19 26 31 31 14 31 11 26 3 24 12 30 34 44 21 23 7 11 17 8 14 11 20 16 8 12 3 11 12 14 3 8 8 53 7 16 43 8 58 46 43 40 60 37 22 12 32 35 42 35 6 45 48 1 53 58 48 52 53 53 35 41 17 0 10 16 43 27 28 7 14 2 16 24 13 12 6 6 16 34 34 38 33 44 55 8 41 8 12 34 38 48 38 41 20 36 38 36 44 15 34 42 33 
28 27 26 27 25 27 22 13 37 44 39 44 44 43 40 35 9 18 22 20 13 25 25 25 24 24 8 28 28 29 22 17 29 45 5 38 30 29 19 53 14 22 3 19 16 13 19 27 19 2 15 8 10 18 14 6 13 11 27 38 8 50 34 12 46 46 39 6 54 32 33 58 58 61 44 46 14 58 30 56 55 16 59 55 53 56 1 24 12 9 12 31 7 14 12 13 14 1 15 8 9 13 10 26 59 27 36 47 40 58 39 40 42 41 59 40 39 38 5 36 4 36 36 33 34 34 37 34 
28 9 27 27 1 27 6 29 36 41 47 46 60 47 48 34 24 17 23 25 10 26 28 25 27 24 31 26 31 11 18 29 51 34 9 10 33 32 22 21 15 31 0 29 8 12 13 11 10 10 13 2 12 21 12 14 0 8 28 46 42 43 1 45 56 44 2 16 27 31 34 39 61 61 55 29 45 45 48 11 49 32 48 62 29 16 38 18 12 9 11 16 56 15 19 10 4 19 14 9 14 12 13 48 33 51 44 58 47 7 37 33 48 0 18 53 34 34 46 33 36 33 54 36 1 52 50 42 
17 25 25 15 24 24 29 25 39 40 33 44 40 46 41 35 4 1 8 30 20 29 8 26 24 24 30 12 13 28 32 0 21 22 11 5 35 21 5 6 23 8 13 21 0 9 4 13 24 14 13 11 4 8 13 3 37 8 40 45 53 39 50 39 48 31 35 36 1 26 6 17 27 25 35 42 40 47 49 63 62 47 42 48 6 24 31 15 12 9 0 1 46 9 14 26 17 10 3 11 15 1 11 43 2 36 9 39 63 60 55 38 36 55 36 32 54 35 39 51 7 38 4 39 35 32 34 0 
24 10 25 17 24 29 22 31 53 11 0 62 36 40 40 35 21 26 23 16 1 25 29 25 22 28 20 26 27 12 39 37 39 26 12 3 36 14 4 17 27 13 27 14 6 0 12 12 25 10 10 10 13 16 8 18 18 46 34 47 47 8 39 47 7 30 59 24 39 4 23 13 18 24 38 9 57 46 48 52 46 61 5 19 1 28 33 15 17 10 14 8 46 20 11 12 15 13 15 3 12 11 29 58 32 11 8 15 41 39 43 34 48 63 51 39 63 7 38 33 60 31 36 39 37 36 42 17 
18 26 27 5 31 17 20 13 35 41 41 44 5 44 40 33 19 24 20 25 24 31 25 25 27 31 9 10 14 52 5 38 41 53 19 12 3 14 18 30 14 17 23 10 18 13 10 1 18 10 9 11 10 8 12 39 58 42 44 51 54 39 43 19 17 17 12 12 11 10 10 24 31 30 42 38 55 44 18 1 45 40 32 7 9 12 3 19 17 0 10 6 43 12 4 17 10 13 4 11 13 15 53 35 2 8 7 39 6 39 39 12 14 38 39 37 54 46 39 13 34 39 36 32 39 37 34 51 
21 28 31 24 5 21 0 11 3 1 2 62 9 25 19 35 25 25 21 24 16 30 26 24 28 28 22 41 57 34 37 38 36 27 18 9 8 29 15 13 19 19 3 2 9 13 14 10 11 26 1 2 11 8 48 25 6 44 48 17 51 41 24 13 15 15 2 0 10 21 9 13 4 35 33 46 39 55 59 59 40 15 5 2 6 5 14 15 9 11 11 10 45 24 11 1 14 11 4 12 14 13 3 33 38 39 38 54 38 38 1 53 53 38 39 39 39 45 53 18 62 33 37 44 36 34 38 41 
26 14 24 19 6 30 17 26 1 33 43 10 44 14 58 35 25 19 22 22 29 29 6 24 7 21 21 46 53 50 34 46 56 0 14 12 17 9 23 8 29 6 3 17 9 11 9 11 10 14 15 10 8 1 27 33 42 46 51 49 44 22 10 14 21 14 9 18 37 48 27 18 25 14 1 44 35 44 55 48 16 7 10 34 45 6 10 12 12 15 5 9 44 25 15 16 10 1 13 13 11 1 37 8 38 32 19 55 62 34 47 23 54 38 38 40 38 37 54 45 44 44 35 15 35 37 33 53 
27 9 16 17 6 4 3 28 41 43 9 12 44 41 42 2 24 21 20 17 10 14 9 17 25 26 11 62 28 60 46 3 12 10 4 9 11 14 19 12 39 30 13 13 13 1 17 10 11 12 1 10 9 30 23 36 32 17 48 52 25 29 28 11 21 6 21 13 59 44 45 21 25 27 10 40 57 45 46 55 22 17 21 25 59 26 11 2 2 10 8 15 43 28 31 13 13 15 14 11 11 31 43 32 39 15 46 37 39 31 38 38 39 52 38 18 45 37 36 43 8 19 35 58 32 31 32 4 
27 25 30 8 30 4 27 29 39 57 36 13 56 41 41 38 25 31 30 25 25 27 7 8 16 29 7 43 34 29 5 27 4 10 31 23 10 21 6 18 26 29 30 12 14 5 14 5 15 11 0 4 19 28 49 35 0 50 9 28 26 33 2 18 23 36 57 45 37 32 36 43 57 24 34 32 39 54 55 27 24 2 29 12 43 0 8 4 12 13 12 12 42 27 6 26 9 11 13 11 12 4 35 33 43 55 39 46 53 36 40 56 37 38 39 39 37 60 44 44 19 35 33 32 32 7 43 46 
18 24 27 23 16 18 17 11 35 59 46 44 46 46 45 35 0 23 22 25 24 28 19 10 17 38 19 21 14 12 15 17 24 29 29 0 12 13 22 17 37 32 15 7 9 9 10 14 12 8 11 13 55 35 59 4 51 48 26 15 32 0 44 56 34 18 29 0 26 7 35 42 23 19 48 34 39 38 33 40 39 54 30 28 16 16 22 14 5 13 20 12 58 32 23 14 12 13 11 15 23 38 5 5 38 51 36 4 36 38 11 37 54 39 37 6 37 24 35 1 35 9 48 5 43 58 46 46 
17 27 28 28 30 20 16 10 39 41 35 13 41 14 59 36 22 19 22 23 9 2 25 12 38 48 31 17 16 14 14 3 12 30 12 20 10 17 11 12 22 35 34 6 14 5 11 14 13 14 5 4 27 34 46 57 34 21 21 56 7 39 38 37 53 50 32 39 39 39 4 52 41 49 32 3 36 46 56 53 31 32 32 31 29 31 7 15 11 4 7 11 54 35 0 5 10 10 15 15 22 35 35 9 39 38 56 10 35 47 38 29 55 32 37 37 44 35 35 34 35 32 42 29 43 19 45 47 
25 24 27 20 21 17 15 28 3 42 9 45 15 43 41 20 26 21 25 24 10 19 27 0 40 28 11 20 6 10 23 16 8 26 9 10 8 9 10 38 30 30 25 7 11 11 12 8 12 4 11 1 44 44 48 43 17 28 30 34 7 38 35 43 40 56 39 41 12 40 12 45 35 3 32 25 34 45 24 0 4 38 54 35 37 28 29 11 15 5 8 11 40 39 25 9 3 12 15 0 32 49 33 7 39 14 46 37 38 62 36 41 37 6 5 37 35 50 34 32 15 44 22 18 53 47 47 52 
26 20 20 23 4 25 7 22 50 42 32 45 45 37 40 38 27 27 18 24 18 31 31 30 40 50 56 23 7 16 27 28 20 19 7 13 13 21 27 6 27 49 11 26 15 10 11 9 6 8 2 27 40 6 51 4 20 30 30 56 51 38 39 9 33 43 26 42 12 36 42 7 47 42 1 12 7 43 50 49 44 40 53 1 32 31 20 23 13 7 15 15 8 58 11 11 12 13 13 17 42 33 37 53 7 54 38 54 45 49 12 36 52 45 35 32 57 52 33 45 46 49 35 24 16 47 47 47 
17 4 21 19 19 19 13 24 2 40 40 42 39 45 61 39 24 2 4 0 29 15 40 32 11 12 20 13 0 16 7 32 43 16 12 3 2 14 24 26 36 8 4 51 17 11 9 9 8 14 36 30 55 49 22 9 22 29 19 48 44 52 41 35 12 45 5 38 43 44 42 55 53 32 32 29 19 57 0 51 34 3 33 18 14 32 13 20 12 4 18 11 21 33 14 11 11 0 11 19 3 5 39 41 46 54 37 15 39 39 53 36 5 36 7 35 33 54 4 40 12 51 53 24 47 38 33 48 
23 29 3 19 10 24 11 20 33 2 57 60 13 37 41 36 24 18 2 24 24 24 49 21 4 22 20 12 18 31 18 33 14 26 9 15 11 3 13 17 0 11 26 51 28 6 14 12 9 34 13 35 46 49 11 9 0 28 48 4 45 38 34 45 42 46 26 62 11 42 42 38 39 52 34 19 33 8 54 49 34 2 29 36 33 33 25 16 15 13 7 6 32 31 29 10 18 12 11 32 31 38 42 38 38 55 47 4 37 52 49 40 58 39 6 38 18 52 44 51 52 56 56 48 48 32 50 59 
22 18 19 18 7 11 13 16 51 39 40 40 61 35 33 12 26 23 21 3 26 28 29 16 43 15 28 18 31 13 13 34 28 16 10 15 11 10 15 10 12 9 20 3 51 10 1 14 10 30 29 47 60 9 16 10 27 27 31 32 34 35 38 39 40 28 42 36 42 41 39 0 0 42 32 48 2 40 5 26 11 39 46 33 35 40 10 13 1 11 29 3 22 55 31 8 24 14 11 35 5 42 41 39 4 34 37 22 36 50 32 36 35 10 46 40 34 56 15 49 37 4 49 50 34 43 2 17 
26 9 17 20 16 14 12 18 34 7 36 43 60 60 42 36 26 19 5 27 10 23 41 19 14 59 7 29 3 18 11 34 22 14 12 1 10 8 8 0 17 0 28 35 20 43 12 8 24 27 53 54 21 8 7 13 29 26 25 7 3 52 42 46 46 59 11 33 35 42 32 54 46 49 15 14 0 38 50 19 55 40 48 53 34 31 24 4 12 8 16 9 25 2 34 0 15 12 20 37 32 7 47 35 46 46 5 36 45 45 8 2 9 39 3 33 35 44 49 33 48 32 49 54 47 52 51 50 
26 18 19 19 24 18 5 20 34 44 40 15 11 53 40 32 25 3 25 42 40 18 37 12 35 21 20 6 23 25 19 25 31 14 10 12 8 1 10 33 0 19 50 11 2 54 7 1 50 29 34 24 8 2 27 17 31 11 31 33 39 38 52 44 40 39 34 33 8 40 38 7 45 33 26 30 19 55 44 56 37 36 37 39 57 11 26 10 13 10 27 8 26 45 34 4 12 3 28 50 6 37 59 6 38 23 38 34 53 36 44 37 53 35 37 15 41 48 28 51 48 35 16 2 60 49 55 27 
15 5 30 16 17 12 14 20 41 40 26 52 52 52 9 7 1 18 19 23 29 47 43 13 27 24 16 27 18 20 7 28 30 25 8 7 2 2 8 19 17 54 24 30 11 15 12 22 22 31 44 8 14 9 28 22 27 29 6 57 33 45 4 45 33 7 40 33 44 6 36 34 23 38 3 11 31 37 44 57 61 39 40 34 37 28 1 10 4 22 19 8 17 41 36 12 14 19 34 35 9 32 39 53 6 37 7 33 45 45 36 52 35 32 35 49 46 49 48 45 48 50 52 52 35 49 28 51 
17 21 28 19 0 15 11 22 33 11 46 43 36 28 43 36 16 19 24 18 11 10 25 19 31 5 19 19 9 11 31 13 32 9 13 6 13 12 19 31 21 37 23 12 8 8 14 34 27 41 38 4 1 16 28 17 25 12 32 30 57 33 3 47 45 39 3 7 38 38 35 31 29 50 50 38 31 50 12 57 24 33 4 2 32 28 9 0 11 7 2 1 13 40 47 12 12 19 22 34 42 38 38 62 37 5 38 47 37 34 37 44 32 38 33 9 22 55 15 32 62 51 36 19 19 19 52 59 
30 28 21 29 16 15 11 30 1 39 14 41 40 60 27 42 13 20 21 22 21 31 6 9 22 30 18 12 33 18 8 18 43 13 14 9 12 8 8 3 11 19 5 13 11 7 41 11 45 44 15 0 3 3 31 19 7 31 26 29 32 34 39 37 4 1 39 63 10 51 37 33 34 37 27 36 31 0 43 59 38 37 61 34 31 18 10 11 12 18 6 9 9 36 35 23 12 19 41 1 56 35 4 37 7 55 54 6 32 53 44 45 33 33 41 44 23 48 48 48 19 51 55 19 18 55 60 52 
19 23 22 24 2 16 15 26 40 38 9 34 43 19 46 36 25 22 28 24 28 3 19 13 29 25 8 19 0 15 0 5 35 12 24 5 18 25 12 1 23 20 15 12 10 20 41 15 16 8 11 9 15 0 10 23 24 27 19 31 37 32 12 37 32 57 35 39 40 37 39 42 18 30 28 21 9 30 33 47 40 36 35 41 31 12 12 14 4 20 19 11 13 61 49 23 13 33 36 62 38 10 38 42 37 28 5 4 48 53 45 43 51 18 52 47 57 48 50 23 17 49 45 25 21 24 52 22 
19 17 10 16 18 6 20 29 34 13 25 40 43 9 42 0 26 17 23 19 24 13 4 10 5 0 13 30 23 3 15 22 24 25 1 13 2 63 9 4 26 3 16 26 29 25 25 5 15 8 14 12 11 10 31 3 29 19 25 34 23 48 35 36 32 15 39 36 35 37 38 39 35 49 31 2 29 11 56 12 54 38 7 36 21 11 3 15 14 25 9 11 10 35 55 0 15 0 37 39 39 2 38 36 44 37 37 1 55 33 53 35 32 33 41 50 48 48 33 48 51 56 50 20 41 16 50 49 
22 20 21 30 18 2 22 27 38 40 41 11 45 28 11 38 28 18 13 23 18 37 0 8 1 17 12 12 21 10 27 28 22 38 3 10 13 33 11 21 8 21 30 40 46 10 34 54 8 13 12 13 12 15 5 5 2 25 30 31 32 51 43 47 39 4 46 55 45 35 0 46 44 33 37 44 40 39 52 9 7 13 1 23 13 14 10 12 9 18 1 18 11 18 38 16 19 32 53 48 39 46 39 33 44 36 32 4 37 33 37 53 21 32 58 53 56 59 11 52 38 51 51 49 32 37 60 62 
17 19 19 19 12 14 20 32 53 44 41 43 40 56 42 53 28 18 17 17 24 24 20 10 24 22 0 24 22 18 29 29 22 31 36 30 3 9 2 16 17 40 11 32 22 19 59 9 12 12 13 19 6 8 31 26 24 28 32 48 8 38 39 49 50 37 37 6 32 52 38 37 39 6 47 18 46 33 49 42 38 37 48 26 13 11 15 10 6 16 7 6 10 15 43 22 29 53 40 37 46 38 52 38 52 46 37 36 44 36 32 51 34 45 45 48 51 51 52 54 19 63 55 3 60 53 56 55 
18 21 5 25 21 10 11 26 53 45 10 59 47 45 18 39 25 31 28 23 12 26 9 29 31 10 9 0 4 22 10 13 1 29 14 34 42 12 8 12 8 37 37 20 23 36 8 10 8 10 4 17 12 12 30 29 24 25 30 49 25 46 14 32 2 42 3 52 35 44 32 44 53 34 41 51 48 58 52 12 39 11 35 13 0 12 13 15 10 3 14 13 11 12 11 2 0 46 43 38 38 38 36 39 33 41 36 36 37 1 3 58 41 33 33 56 50 54 36 51 52 55 22 30 23 36 36 49 
16 15 19 18 11 16 20 29 39 32 59 9 41 41 43 2 27 16 5 6 30 12 6 9 26 15 19 14 15 13 26 16 27 14 23 31 9 14 14 58 27 51 13 25 29 20 10 0 15 8 9 16 17 3 30 17 30 20 30 33 32 38 35 51 35 37 34 32 2 48 37 42 23 39 28 43 43 40 6 43 23 51 26 14 14 5 10 16 17 17 4 18 9 14 42 41 37 21 50 47 49 45 38 37 47 38 53 7 7 3 35 34 32 2 8 49 59 52 48 53 48 46 53 60 54 63 52 21 
1 14 7 24 13 12 19 31 14 33 11 8 36 34 39 47 27 25 26 21 25 50 13 16 16 1 24 6 13 53 27 28 16 7 1 21 8 35 37 5 21 49 26 26 48 10 13 9 8 12 14 13 6 9 20 20 19 26 29 43 19 2 37 34 20 6 39 23 29 22 2 15 29 15 28 24 38 18 24 30 32 11 11 12 15 11 12 16 17 15 2 14 3 2 24 49 37 38 48 39 37 52 38 37 5 37 45 48 45 59 49 41 34 52 35 19 52 48 32 53 56 27 37 17 21 53 53 51 
15 13 16 16 29 16 25 30 39 41 32 56 8 61 26 34 28 29 24 4 9 31 13 5 8 15 17 5 13 38 25 24 14 19 21 26 12 32 33 12 13 27 4 60 3 4 12 11 3 11 9 15 18 14 22 21 25 25 13 28 30 34 33 1 44 37 35 8 31 14 20 31 31 28 16 35 38 6 36 32 38 29 12 10 15 1 15 14 6 19 16 15 9 0 38 34 6 52 47 46 36 54 21 47 37 36 39 5 44 32 39 5 32 39 49 54 20 52 37 21 52 4 52 53 49 36 63 50 
4 14 4 17 20 18 29 28 37 32 42 62 40 47 33 14 32 29 19 25 29 26 24 4 15 15 4 14 13 45 22 28 13 21 6 5 32 39 50 32 44 25 43 25 15 5 13 15 15 14 13 22 21 11 18 28 16 5 28 29 7 11 32 32 0 36 41 10 30 29 21 31 49 42 51 33 46 37 3 36 14 9 10 13 10 10 14 14 27 19 15 26 12 8 35 18 34 36 39 38 38 39 1 37 39 36 36 53 54 36 38 33 30 13 34 61 34 53 29 52 52 53 53 48 50 53 48 20 
15 10 2 11 14 10 4 28 37 43 60 60 13 45 47 43 29 0 19 8 2 24 10 44 8 9 11 24 19 59 56 19 16 49 35 30 32 44 6 51 18 42 45 15 14 12 13 15 13 12 12 13 19 4 18 21 10 23 31 19 20 30 31 31 43 32 12 3 32 32 27 44 35 50 46 1 3 6 44 48 31 11 2 15 4 6 9 11 25 19 6 2 14 3 49 8 39 38 4 54 37 3 46 23 37 52 37 36 38 36 60 50 26 8 51 54 28 52 22 52 53 33 21 29 48 51 51 50 
14 15 8 14 15 19 30 28 36 38 34 28 44 43 10 21 11 16 16 26 10 13 7 53 12 1 16 10 22 43 30 24 31 18 33 5 28 33 31 32 45 16 8 8 12 14 13 4 12 11 10 15 17 15 12 14 15 17 22 27 11 26 25 0 37 34 50 34 2 51 32 28 15 25 11 23 6 37 36 13 14 3 11 11 8 11 8 14 16 17 25 24 7 5 1 36 47 42 39 22 36 22 36 2 39 39 37 33 35 35 38 33 11 37 55 50 49 60 20 54 52 52 49 55 59 49 53 36 
9 15 8 15 11 25 30 21 43 35 42 41 44 62 42 5 31 3 25 8 21 19 21 15 4 7 14 13 30 32 28 55 10 1 20 13 13 41 30 54 50 8 11 11 11 12 6 4 13 4 13 12 14 7 11 15 17 12 20 28 9 28 23 33 39 50 35 7 38 34 33 4 41 52 36 33 43 35 37 8 12 14 12 5 13 12 4 15 23 18 18 17 19 0 32 39 37 50 39 7 14 23 36 39 38 59 45 36 32 4 8 48 26 44 36 52 22 45 54 62 18 48 52 53 52 36 36 61 
12 9 14 13 13 7 18 30 51 62 11 41 43 36 35 41 26 21 20 25 21 2 30 14 8 25 8 16 16 29 22 24 29 28 18 8 28 18 25 1 12 13 8 6 9 5 6 13 15 14 11 5 4 0 8 16 16 12 16 16 30 26 20 27 32 32 33 34 36 33 63 53 35 33 62 39 34 33 33 11 13 11 11 12 18 13 13 9 8 7 19 30 7 14 34 40 36 37 34 7 38 38 7 37 38 5 5 49 53 1 34 36 29 43 54 34 50 63 51 49 52 52 21 15 28 46 33 44 
3 13 13 14 9 31 25 26 39 38 44 52 45 10 2 36 20 16 2 25 27 18 26 11 11 15 12 13 21 16 15 4 41 30 28 16 2 29 30 40 28 0 9 12 7 26 6 13 12 12 10 13 5 6 4 14 14 12 19 10 24 22 16 29 23 33 1 45 36 42 32 42 43 14 41 40 39 5 8 0 9 0 9 15 2 13 10 13 18 18 18 19 12 4 34 50 32 36 0 36 7 34 37 37 52 33 38 34 37 3 34 0 25 30 62 22 51 53 53 52 53 60 6 50 55 51 28 51 
14 6 4 13 12 17 27 40 10 39 59 43 12 38 47 37 25 12 11 14 8 7 15 4 17 17 13 11 23 30 8 16 20 30 35 29 33 43 27 24 1 12 5 14 11 8 13 13 5 13 6 4 12 15 14 12 15 15 3 6 10 12 21 26 28 31 48 48 37 22 35 33 47 40 34 41 36 35 15 5 6 10 13 13 12 13 12 7 29 3 10 26 12 13 33 47 5 4 47 38 60 49 34 53 39 4 32 1 51 6 49 7 29 32 63 54 49 55 55 53 39 45 51 34 18 48 60 36 
10 14 11 3 3 25 16 17 35 56 41 10 24 44 42 52 27 13 37 16 12 14 19 0 13 16 12 11 1 32 23 22 21 30 22 4 41 32 3 41 11 6 12 14 13 9 10 5 14 7 9 15 8 14 6 15 21 21 3 17 14 12 3 15 29 30 24 31 32 34 38 54 13 12 1 36 34 9 4 12 14 12 14 14 13 12 0 17 26 3 25 19 17 15 36 14 3 29 32 50 2 36 45 37 37 53 36 3 36 48 33 22 28 58 7 55 52 29 45 20 49 16 35 59 9 9 3 11 
13 13 9 10 11 21 19 24 35 35 11 15 45 44 8 44 8 59 6 3 11 10 5 8 14 8 5 10 10 35 36 7 10 30 24 61 27 39 13 18 35 10 3 12 12 1 11 8 6 8 10 8 13 15 12 15 14 15 12 16 21 17 12 48 49 2 38 34 34 35 38 39 47 40 51 47 12 44 29 12 15 13 15 6 14 13 9 11 31 21 17 23 15 20 38 41 29 19 25 29 31 26 33 37 4 36 52 3 51 33 31 31 35 37 23 48 52 49 48 3 17 48 44 20 8 11 7 7 
15 11 13 14 9 10 20 0 35 7 43 43 43 57 57 33 30 20 17 26 8 11 22 11 17 15 3 11 6 18 21 14 8 24 23 21 31 30 23 8 23 16 7 13 15 20 14 16 1 13 6 1 15 11 13 7 14 14 12 16 28 16 16 31 31 42 38 0 53 61 47 36 38 4 53 42 37 17 49 35 44 2 13 13 12 5 10 30 28 12 26 28 20 18 40 6 30 29 28 29 29 29 1 22 13 31 59 42 34 8 30 20 41 37 55 54 55 37 61 51 52 46 11 20 10 12 25 16 
31 4 17 13 8 17 15 19 15 54 26 47 2 46 40 49 25 16 15 42 9 9 16 11 13 15 5 14 15 14 33 24 34 2 39 20 26 8 21 24 45 22 34 2 5 22 8 13 5 14 2 15 13 10 4 4 14 15 15 17 23 31 20 42 7 14 34 34 49 3 3 44 35 39 38 10 43 33 50 43 50 50 45 28 10 15 0 21 28 2 19 21 5 17 15 37 25 44 32 14 23 29 30 25 8 13 31 26 27 17 19 27 24 55 51 59 52 50 54 19 44 27 13 11 12 19 21 20 
49 32 30 21 17 6 10 17 18 38 42 42 43 37 37 49 26 8 55 11 0 9 2 31 7 2 20 25 28 8 20 33 22 22 15 31 27 2 27 29 43 26 23 21 13 20 12 3 13 1 14 5 13 8 0 9 15 17 13 13 8 15 15 30 26 48 5 37 35 49 43 43 36 38 38 3 46 48 33 17 17 51 17 57 38 10 10 29 10 26 26 20 18 18 47 34 36 43 0 38 33 32 31 20 27 25 8 31 28 24 27 19 3 51 49 49 20 49 34 47 34 11 12 3 22 21 20 22 
9 33 33 20 26 20 12 16 28 2 42 42 11 42 58 17 2 42 25 10 11 10 5 29 17 8 47 18 15 15 14 9 11 21 25 16 11 26 40 23 17 57 11 31 8 14 8 15 6 13 1 13 5 5 10 11 22 16 14 14 25 19 23 23 23 30 32 34 37 35 23 41 36 46 9 33 13 47 48 32 26 50 51 22 52 50 8 12 25 27 18 20 25 17 39 42 47 44 48 7 32 35 48 61 31 8 27 25 19 36 30 23 6 60 56 60 53 35 45 26 9 15 21 19 22 19 29 21 
31 39 36 35 28 20 15 14 30 36 32 11 32 12 31 23 45 16 19 12 13 10 3 4 5 18 14 15 27 28 1 6 9 7 15 25 5 23 48 7 17 9 4 5 20 6 10 13 14 13 13 14 15 12 12 15 20 29 15 10 30 28 24 27 27 37 32 34 23 35 57 37 5 40 56 59 44 46 47 48 48 48 58 53 54 17 4 14 8 7 8 4 6 13 39 33 45 36 44 20 33 35 34 33 36 31 15 29 26 33 13 20 38 57 53 37 16 51 44 12 13 30 17 21 24 17 21 20 
30 31 44 39 41 30 1 11 11 59 63 43 43 44 16 37 55 29 5 8 15 7 18 17 10 11 14 21 14 8 14 16 24 6 18 18 25 21 53 29 21 23 32 8 40 15 8 10 10 9 14 13 15 6 15 0 20 22 6 1 4 28 29 27 35 34 16 37 40 33 33 45 46 37 42 42 44 60 43 43 25 32 49 49 22 49 20 54 11 4 14 18 19 12 4 34 35 6 24 36 34 1 0 58 34 36 34 22 24 0 32 20 51 49 53 21 52 46 29 8 5 10 15 2 27 26 7 17 
7 26 58 11 45 41 19 13 29 3 47 13 47 61 34 37 43 26 8 6 13 11 23 14 13 14 24 12 24 8 25 14 9 20 2 21 1 20 33 28 21 14 19 53 26 14 15 13 15 13 13 13 15 15 8 9 8 29 26 12 6 28 30 34 23 34 34 3 43 50 12 39 33 37 13 41 10 51 55 45 60 56 56 51 51 48 35 54 8 10 9 4 15 30 34 39 35 36 32 34 55 59 50 39 37 24 6 15 30 34 50 43 51 20 60 29 50 55 31 23 18 23 24 26 27 3 22 24 
15 26 29 9 41 20 31 11 25 5 60 59 45 12 42 37 46 18 7 10 6 9 4 13 13 14 12 11 15 10 22 13 18 3 23 26 6 7 6 41 31 49 15 12 17 12 8 14 2 12 5 9 16 3 1 2 14 24 18 11 16 31 31 34 53 33 35 33 41 10 54 37 54 38 56 40 56 54 28 15 47 45 63 32 33 12 5 55 19 3 9 2 8 27 34 46 36 52 4 37 51 50 51 34 20 9 37 21 24 41 54 41 19 53 33 54 55 29 18 23 21 24 9 24 24 22 5 26 
8 14 25 25 8 39 16 12 27 38 10 44 26 41 41 38 19 17 8 10 4 24 15 4 2 11 28 9 22 0 12 16 23 10 19 19 11 0 21 2 47 34 13 15 7 15 10 21 15 12 12 0 6 15 8 13 19 19 23 8 20 2 8 31 32 32 11 35 35 52 41 39 44 38 55 47 37 58 45 39 44 47 1 49 55 52 36 55 55 53 15 15 10 61 33 38 44 35 36 38 2 48 18 2 40 33 0 40 30 60 10 18 53 52 22 51 44 22 5 24 24 27 20 25 22 24 26 24 
11 2 20 7 43 29 23 11 26 38 8 44 45 45 33 1 33 32 6 10 14 12 9 12 2 11 38 10 17 13 7 0 8 2 28 25 30 19 20 9 41 61 11 12 63 2 10 29 12 14 11 12 14 11 12 14 16 25 31 15 0 30 49 32 44 10 38 33 34 33 33 46 60 46 44 39 57 41 47 4 38 46 48 49 51 6 39 45 55 24 4 0 8 4 43 0 39 38 45 32 51 55 32 1 3 33 22 30 40 49 6 6 50 52 55 50 34 23 31 23 23 31 21 23 7 10 9 26 
3 12 21 38 10 55 21 11 10 34 15 44 47 45 56 31 36 18 15 8 14 9 11 4 10 21 5 10 12 11 12 13 13 9 20 16 31 17 14 37 36 11 31 13 53 8 0 22 19 12 12 11 14 5 12 15 26 25 30 11 30 10 33 1 35 2 35 50 34 34 44 60 36 36 50 43 40 13 42 4 41 46 18 54 51 52 48 50 54 39 45 5 7 38 38 33 55 4 4 11 11 35 46 40 0 36 49 33 50 38 57 51 39 54 4 61 1 19 23 5 29 29 24 29 24 26 31 27 
12 6 16 46 58 47 16 10 27 63 36 38 45 45 41 0 10 12 0 14 2 10 0 12 15 12 20 6 11 15 15 8 11 2 7 0 25 21 27 38 33 38 28 10 29 19 11 18 15 21 14 12 10 13 2 22 14 31 14 12 26 13 29 33 42 51 7 33 8 38 34 44 35 37 37 32 12 41 42 42 45 63 17 51 48 44 63 17 30 53 38 7 8 37 35 35 44 36 46 32 50 32 10 1 33 29 23 1 60 62 56 61 38 55 59 32 26 23 21 15 16 26 22 23 30 10 18 5 
7 7 16 37 42 42 27 1 28 58 44 42 43 43 34 32 32 7 10 7 10 9 15 2 13 12 0 14 5 22 12 10 10 16 9 12 12 27 38 35 8 19 28 53 39 12 2 14 17 11 5 4 12 12 17 28 31 30 23 12 23 31 36 36 49 55 34 34 33 32 2 34 35 37 4 37 53 32 59 41 44 44 38 17 34 51 52 55 37 38 55 8 0 34 52 40 4 53 47 42 20 51 40 5 36 36 30 14 53 49 50 53 3 51 44 31 26 31 26 19 30 25 16 22 26 25 24 13 
7 7 18 14 43 0 24 1 18 54 55 44 44 63 46 41 55 13 11 15 9 13 3 9 13 11 21 5 15 12 14 3 11 2 22 11 14 2 43 34 28 27 9 11 11 24 20 30 37 8 1 12 2 14 16 20 25 26 29 11 28 35 40 42 34 35 42 50 33 35 35 39 43 36 37 38 55 55 40 43 61 47 8 49 49 59 52 52 61 23 50 38 10 35 35 55 37 51 35 40 35 36 39 32 33 31 10 41 49 22 16 21 54 43 55 21 18 24 17 30 26 19 5 8 26 14 23 19 
9 8 12 6 42 43 31 7 8 34 43 40 44 47 47 47 37 13 11 2 10 14 4 14 9 12 19 12 8 10 22 9 9 10 6 14 27 20 30 18 21 53 0 24 0 9 18 6 14 7 8 8 12 19 23 30 50 32 22 16 25 21 32 50 42 33 60 50 37 48 34 1 3 38 45 49 38 54 41 43 35 39 42 44 32 34 52 60 61 53 26 51 15 37 35 45 35 35 38 11 59 35 34 35 48 33 7 36 49 37 50 54 37 49 8 20 30 25 23 9 16 22 22 18 25 20 5 22 
1 11 9 32 42 41 31 8 19 38 11 24 44 45 11 39 35 9 11 8 3 4 21 7 14 13 12 13 16 9 12 8 13 8 19 18 8 27 49 15 30 16 46 22 22 13 11 14 18 4 12 1 13 22 31 20 29 44 18 17 28 33 42 38 35 35 17 9 33 33 35 51 35 37 37 37 38 38 32 13 34 46 36 20 34 57 50 62 54 53 49 17 21 42 32 4 28 36 2 37 36 42 34 32 35 35 38 32 41 45 58 21 53 20 30 2 26 23 16 26 19 20 27 28 7 17 24 8 
8 11 13 29 63 12 34 14 7 48 34 44 4 14 11 22 40 20 9 10 12 23 12 12 9 3 19 12 17 12 11 14 10 18 11 13 22 14 14 28 29 14 29 15 37 5 13 14 13 13 11 11 15 19 30 31 12 30 12 12 40 36 35 35 35 38 42 14 50 3 51 48 36 36 36 36 38 4 41 23 41 52 37 23 40 51 55 52 53 53 53 61 31 53 18 20 19 23 49 55 43 32 35 35 19 46 6 45 41 38 19 39 36 57 20 19 25 18 16 21 5 26 25 21 17 23 23 22 
9 5 14 29 43 58 35 14 23 60 47 36 42 9 59 39 20 16 16 15 3 12 5 10 14 15 1 14 19 10 6 8 10 9 15 25 30 24 13 11 38 11 27 20 11 11 13 5 9 11 11 14 19 24 31 22 26 26 6 27 36 51 2 34 52 34 36 51 7 33 60 32 1 46 46 44 52 38 38 57 41 32 41 15 58 17 34 51 52 52 37 54 16 9 18 20 14 15 21 31 42 38 39 51 35 34 35 36 3 39 52 55 50 35 30 23 17 24 21 17 28 25 8 21 22 20 20 31 
0 7 9 27 34 62 56 13 18 36 9 40 13 60 13 61 34 20 19 7 16 13 9 13 2 16 13 16 23 9 10 2 2 4 11 27 40 29 13 10 7 11 3 2 3 4 10 14 10 10 11 2 21 20 12 28 28 12 25 40 36 33 34 37 19 21 5 44 39 43 35 19 18 50 52 33 47 1 7 8 43 43 4 46 46 49 50 54 12 63 61 23 54 9 1 17 17 20 29 22 11 29 25 62 36 3 38 36 3 47 55 50 28 30 21 28 21 23 17 17 15 7 23 18 1 28 19 1 
13 8 10 25 41 46 36 7 20 59 57 35 36 44 35 35 23 17 23 11 10 9 10 16 5 19 11 4 1 3 10 12 14 7 9 19 24 16 35 18 31 17 9 8 9 11 5 11 9 11 13 23 24 31 17 18 25 8 26 34 9 58 2 3 35 3 27 36 34 34 35 37 33 49 37 33 37 37 38 50 1 40 40 62 14 17 18 51 16 5 52 54 36 22 20 8 21 23 3 15 13 17 18 20 2 8 19 42 38 48 22 50 36 19 0 17 23 24 20 26 6 6 31 10 25 7 27 14 
14 14 13 11 34 11 9 2 20 51 44 13 36 1 28 41 19 21 7 13 11 11 15 7 10 13 9 17 13 14 14 12 0 12 12 11 26 30 7 41 17 28 10 11 10 1 14 10 11 11 17 22 28 20 28 2 11 21 29 1 38 43 38 52 34 55 32 35 44 32 33 3 45 32 51 2 32 37 23 47 40 34 43 59 45 42 25 53 59 52 61 14 53 24 31 27 19 0 23 16 11 8 8 12 15 30 49 42 32 44 53 46 27 18 11 3 19 23 23 25 5 4 21 25 26 21 2 11 
14 20 30 24 41 62 47 25 22 35 34 59 38 47 42 33 29 30 15 8 9 15 9 12 4 11 11 14 23 15 11 10 12 3 12 15 12 15 29 47 20 25 12 13 15 7 15 1 12 13 19 24 31 29 14 11 15 27 32 42 33 2 33 36 3 43 3 17 37 35 35 39 62 34 51 34 33 36 14 5 39 41 58 58 14 43 33 54 57 36 50 45 55 5 20 22 14 11 18 22 21 16 12 8 9 39 34 27 44 61 35 43 15 5 18 18 2 5 9 17 20 23 21 27 25 21 26 14 
21 6 2 28 33 45 43 29 24 38 41 36 59 37 38 57 25 30 9 9 3 15 10 12 13 13 11 12 20 14 19 14 9 1 13 16 12 14 22 31 51 11 8 12 11 8 11 1 13 19 29 13 25 27 14 9 27 48 48 50 33 38 39 34 2 42 1 35 2 51 35 36 32 47 19 48 49 34 46 34 50 44 40 59 44 62 32 59 36 53 52 5 32 38 26 18 17 30 1 17 22 17 16 14 13 33 50 33 55 49 54 11 9 10 23 17 6 25 26 2 30 20 25 28 24 4 1 28 
23 16 28 16 9 60 42 30 30 48 43 44 43 46 44 41 14 17 3 14 13 12 6 10 10 4 3 20 17 14 30 10 10 18 13 9 12 22 20 21 18 8 12 1 12 8 8 12 22 20 28 29 7 10 18 26 5 27 49 33 39 3 59 34 51 23 52 49 3 44 33 3 34 38 50 42 50 35 39 41 36 11 13 42 15 40 47 51 51 32 44 55 50 54 23 21 24 26 31 21 16 18 16 1 27 50 57 29 51 31 18 9 13 26 16 21 26 24 6 2 2 25 25 26 24 21 15 0 
12 21 24 21 34 4 43 30 27 23 35 46 45 45 40 41 21 22 5 12 13 13 13 8 19 10 8 21 16 14 26 3 14 17 8 15 21 9 20 30 23 25 8 12 8 11 9 7 18 14 15 9 4 26 26 30 23 32 33 35 41 39 35 38 32 17 33 39 45 37 39 35 48 55 42 51 41 45 0 45 35 39 40 43 27 44 44 48 48 52 54 52 28 60 32 21 21 8 11 24 17 18 7 27 22 34 1 40 24 20 17 19 3 25 30 12 25 17 17 15 27 25 25 25 13 14 3 0 
2 15 7 26 38 44 50 32 24 34 40 11 37 52 45 9 15 13 2 14 14 15 15 13 21 9 12 15 26 12 10 11 11 18 27 12 17 23 19 24 44 17 10 14 10 13 2 9 2 19 21 23 27 9 26 11 32 32 37 0 31 45 50 33 55 50 34 5 3 12 37 36 56 46 32 37 35 36 32 38 38 47 47 42 15 60 15 59 50 54 38 4 52 5 61 19 5 24 25 24 18 25 11 26 24 20 32 17 28 20 23 22 19 31 24 11 28 20 7 20 25 14 30 13 16 17 4 9 
14 14 8 4 43 45 38 32 30 19 37 47 12 9 45 9 16 15 15 3 3 14 15 12 12 15 9 8 11 10 27 31 11 11 7 7 12 29 17 26 17 4 15 0 8 10 15 16 20 25 26 12 27 27 31 18 32 23 30 16 35 32 33 40 54 1 45 46 55 57 37 34 11 7 7 2 59 36 53 45 1 38 32 13 32 43 12 46 47 48 51 54 48 53 50 19 22 22 25 28 27 18 30 1 29 28 26 21 30 30 8 21 29 29 16 20 18 23 29 12 8 27 2 22 12 15 14 14 
13 15 28 17 35 50 30 36 25 45 50 28 46 41 53 29 15 14 15 5 10 6 1 13 5 26 11 26 4 12 27 24 31 11 25 10 8 17 27 14 29 15 5 14 14 0 13 23 26 9 30 25 29 19 30 37 48 56 44 40 45 35 34 50 42 50 34 52 6 4 38 37 5 39 55 37 32 44 35 33 37 38 39 57 47 43 41 29 44 49 0 19 21 55 50 34 5 20 24 28 30 26 6 12 28 10 27 25 26 26 8 15 24 12 22 18 17 24 20 20 15 29 24 6 15 12 9 6 
11 13 3 14 35 50 50 60 1 5 36 36 40 37 45 34 15 13 15 14 17 16 11 19 28 0 13 32 7 14 29 22 36 11 13 26 3 18 16 11 29 24 30 11 11 20 22 24 27 20 30 28 18 5 30 15 49 16 41 36 33 41 2 52 55 42 34 62 47 44 22 39 53 38 53 37 36 47 33 37 52 32 56 33 41 34 42 40 56 16 54 23 49 52 21 60 20 18 9 8 29 30 21 16 28 13 27 26 9 28 23 23 27 20 21 21 23 20 28 32 12 18 20 15 11 15 14 20 
9 13 13 10 53 32 49 14 26 35 8 56 31 44 44 22 16 5 10 4 13 17 9 17 18 9 21 29 22 13 24 3 17 30 11 9 2 15 16 21 3 31 19 16 15 19 22 24 20 31 28 22 31 30 30 31 27 1 1 33 32 33 39 33 41 35 35 50 52 36 33 26 38 36 35 33 32 38 37 38 21 40 35 45 57 43 8 45 22 56 48 10 58 59 55 52 31 22 23 21 27 15 30 9 30 23 33 51 19 10 16 20 27 19 29 31 3 16 21 15 25 18 14 8 12 5 23 9 
